<svg height="512" viewBox="0 0 512 512" width="512" xmlns="http://www.w3.org/2000/svg"><g id="BULINE"><circle cx="256" cy="256" fill="#934cf5" r="256"/></g><g id="Icons"><path d="m167.12 15.86v480.29c-97.58-36.15-167.12-130.01-167.12-240.15s69.54-204 167.12-240.14z" fill="#00b564"/><path d="m344.87 15.86v480.29a256.53 256.53 0 0 1 -177.75 0v-480.29a253 253 0 0 1 29.41-8.86 257.31 257.31 0 0 1 148.34 8.91z" fill="#fff"/><path d="m512 256a256.09 256.09 0 0 1 -167.13 240.15v-480.29a252.21 252.21 0 0 1 29.41 13.05 256 256 0 0 1 137.72 227.09z" fill="#db1b1b"/><path d="m196.53 7v498.1a252.91 252.91 0 0 1 -29.41-8.9v-480.34a253 253 0 0 1 29.41-8.86z" fill="#e0e0e0"/><path d="m374.28 28.91v454.19a253.9 253.9 0 0 1 -29.41 13v-480.24a252.21 252.21 0 0 1 29.41 13.05z" fill="#c11616"/><circle cx="444.71" cy="166.38" fill="#ea3434" r="16.28"/><circle cx="444.71" cy="132.46" fill="#ea3434" r="11.53"/><path d="m57.87 256.05a255.68 255.68 0 0 0 109.25 209.78v30.32c-97.58-36.15-167.12-130.01-167.12-240.15s69.54-204 167.12-240.14v30.41a255.66 255.66 0 0 0 -109.25 209.78z" fill="#029e53"/><path d="m196.53 483.63a254.3 254.3 0 0 0 88.19 26.78 259.42 259.42 0 0 1 -28.72 1.59 256.16 256.16 0 0 1 -59.47-6.95 252.91 252.91 0 0 1 -29.41-8.9v-30.32a253.77 253.77 0 0 0 29.41 17.8z" fill="#e0e0e0"/><path d="m196.53 28.47a253.77 253.77 0 0 0 -29.41 17.8v-30.41a253 253 0 0 1 29.41-8.86 256.16 256.16 0 0 1 59.47-7 260.14 260.14 0 0 1 29.17 1.64 254.1 254.1 0 0 0 -88.64 26.83z" fill="#e0e0e0"/><g fill="#ccc"><path d="m196.53 7v21.47a253.77 253.77 0 0 0 -29.41 17.8v-30.41a253 253 0 0 1 29.41-8.86z"/><path d="m167.12 465.83a253.77 253.77 0 0 0 29.41 17.8v21.42a252.91 252.91 0 0 1 -29.41-8.9z"/></g></g></svg>