<svg width="24" height="24" viewBox="0 0 24 24" fill="none" xmlns="http://www.w3.org/2000/svg">
<path d="M2.6918 14.4448L3.56294 13.5736L10.3259 20.3365L9.4547 21.2077L2.6918 14.4448Z" fill="black" stroke="black" stroke-width="0.999765"/>
<path d="M0.887569 17.5266C0.765793 17.6482 0.697388 17.8133 0.697388 17.9854C0.697388 18.1576 0.765793 18.3227 0.887569 18.4445L5.45536 23.0121C5.58197 23.1389 5.74824 23.2023 5.91424 23.2023C6.08042 23.2023 6.24659 23.1389 6.37321 23.0121L7.54472 21.8405L2.05917 16.355L0.887569 17.5266Z" fill="black"/>
<path d="M14.4419 1.98761L12.8618 3.5678L20.3319 11.0378L21.912 9.45771C21.8975 9.44576 21.8837 9.43345 21.8701 9.41991C21.8701 9.41991 14.4538 2.00194 14.4419 1.98761Z" fill="black"/>
<path d="M6.79181 14.2597L14.2546 6.79688L17.1027 9.64493L9.63969 17.1078L6.79181 14.2597Z" fill="black"/>
<path d="M23.1975 5.91914C23.1975 5.74698 23.1291 5.58186 23.0073 5.46026L18.4395 0.892381C18.1861 0.638982 17.7751 0.638982 17.5217 0.892381L16.3501 2.06398L21.8357 7.54971L23.0074 6.3782C23.1291 6.25642 23.1975 6.0913 23.1975 5.91914Z" fill="black"/>
</svg>
