<svg width="24" height="24" viewBox="0 0 24 24" fill="none" xmlns="http://www.w3.org/2000/svg">
<path fill-rule="evenodd" clip-rule="evenodd" d="M14.69 1.92572C15.59 2.78572 16.39 3.74572 17.09 4.77572C18.92 7.48572 20 10.7257 20 14.2157C20 18.6357 16.42 22.2157 12 22.2157C7.58 22.2157 4 18.6357 4 14.2157C4 11.6757 4.68 9.29572 5.87 7.25572C6.03 6.96572 6.2 6.69572 6.38 6.42572C6.62 6.05572 7.17 6.18572 7.28 6.60572C7.34 6.82572 7.38 6.94572 7.48 7.14572C8.03 8.47572 9.29 9.40572 10.83 9.40572C12.89 9.40572 14.24 7.73572 14.24 5.67572C14.24 4.56572 14.04 3.32572 13.85 2.38572C13.75 1.90572 14.34 1.58572 14.69 1.92572ZM8.49 16.0757C8.49 17.8157 9.93 19.2157 11.71 19.2157C14.36 19.2157 16.51 17.0657 16.5 14.4157C16.5 13.3457 16.38 12.2857 16.15 11.2657C16.07 10.8957 15.61 10.7757 15.33 11.0357C14.28 12.0257 12.77 12.6557 11.3 12.9557C9.54 13.3157 8.49 14.4557 8.49 16.0757Z" fill="black" fill-opacity="0.54"/>
</svg>
